
<svg xmlns="http://www.w3.org/2000/svg" viewBox="0 0 100 100">
  <!-- Base Pattern -->
  <g fill="none" stroke="currentColor" stroke-width="1">
    <!-- Geometric Songket Pattern -->
    <path d="M10,10 L90,10 L90,90 L10,90 Z" />
    <path d="M20,20 L80,20 L80,80 L20,80 Z" />
    <!-- Floral Elements -->
    <path d="M50,10 Q60,25 50,40 Q40,25 50,10" />
    <path d="M10,50 Q25,60 40,50 Q25,40 10,50" />
    <path d="M90,50 Q75,60 60,50 Q75,40 90,50" />
    <path d="M50,90 Q60,75 50,60 Q40,75 50,90" />
    <!-- Corner Motifs -->
    <circle cx="10" cy="10" r="5" />
    <circle cx="90" cy="10" r="5" />
    <circle cx="10" cy="90" r="5" />
    <circle cx="90" cy="90" r="5" />
  </g>
</svg>
